# xmcd CD database file
#
# Track frame offsets:
#	150
#	20095
#	43210
#	61300
#	77915
#	95115
#	113215
#	131930
#	150090
#	168610
#
# Disc length: 2550 seconds
#
# Revision: 0
# Processed by: cddbd v1.5.1PL0 Copyright (c) Steve Scherf et al.
# Submitted via: CDex 1.51
#
DISCID=8809f40a
DTITLE=Various Artist - N Disc1
DYEAR=2001
DGENRE=Hip-Hop
TTITLE0=INNOSENCE - 科学の字間〜Breakthrough？〜
TTITLE1=童子-T feat.YAMAKOU - Nipponia Nippon
TTITLE2=UZI - 泉
TTITLE3=CUEZERO - STOP and GO
TTITLE4=O.J and S.T - WORLD IS MINE
TTITLE5=BACKGAMMON - Rough-'n-Tough
TTITLE6=REALSTYLA - 動け2002
TTITLE7=KM-MARKIT - ONEWAY
TTITLE8=INDEMORAL - CHECK MY WORLD (REMIX)
TTITLE9=Ganxsta.D-X feat.Big Ron - Psycho Ganxsta 0468
EXTD=YEAR: 2001
EXTT0=
EXTT1=
EXTT2=
EXTT3=
EXTT4=
EXTT5=
EXTT6=
EXTT7=
EXTT8=
EXTT9=
PLAYORDER=
